<svg xmlns="http://www.w3.org/2000/svg" width="14" height="20.878" viewBox="0 0 14 20.878"><defs><style>.a{fill-rule:evenodd;}</style></defs><path class="a" d="M74.33,7.857c-5.6,2.8-5.054,9.818,1.431,18.459,1.711,2.279,1.705,2.279,3.411-.027,4.662-6.3,6.3-11.532,4.735-15.082a7.179,7.179,0,0,0-9.576-3.35m5.787,1c4.593,2.169,4.307,7.582-.8,15.225-1.9,2.838-1.735,2.747-2.682,1.5-3.29-4.318-5.487-9.587-5.072-12.161a5.917,5.917,0,0,1,8.557-4.569M76.41,11.648a2.361,2.361,0,0,0-1.815,1.778,3.1,3.1,0,1,0,1.815-1.778m2.539,1.7a1.834,1.834,0,0,1-.192,2.748A1.994,1.994,0,0,1,76,13.229c.852-.975,1.982-.93,2.948.118" transform="translate(-70.483 -7.145)"/></svg>
