<svg xmlns="http://www.w3.org/2000/svg" width="16" height="20.164" viewBox="0 0 16 20.164"><defs><style>.a{fill-rule:evenodd;}</style></defs><path class="a" d="M52,26.082V36.164H68V16H52V26.082m14.9-.11v9.1H53.1V16.877H66.9v9.1m-11.4-5.26v.548h8.986v-1.1H55.507v.548m0,4.384v.548h5.918v-1.1H55.507V25.1m7.452,0c0,.48.095.548.767.548s.767-.068.767-.548-.095-.548-.767-.548-.767.068-.767.548m-7.452,2.63c0,.541.022.548,1.863.548s1.863-.006,1.863-.548-.022-.548-1.863-.548-1.863.006-1.863.548m7.452,0c0,.48.095.548.767.548s.767-.068.767-.548-.095-.548-.767-.548-.767.068-.767.548m-7.452,2.63V30.9h5.918v-1.1H55.507v.548m7.452,0c0,.48.095.548.767.548s.767-.068.767-.548-.095-.548-.767-.548-.767.068-.767.548" transform="translate(-52 -16)"/></svg>
